<?xml version="1.0" encoding="UTF-8" standalone="no"?>
<!DOCTYPE svg PUBLIC "-//W3C//DTD SVG 1.1//EN"
 "http://www.w3.org/Graphics/SVG/1.1/DTD/svg11.dtd">
<!-- Generated by graphviz version 14.1.2 (20260124.0452)
 -->
<!-- Title: example Pages: 1 -->
<svg width="484pt" height="68pt"
 viewBox="0.00 0.00 484.00 68.00" xmlns="http://www.w3.org/2000/svg" xmlns:xlink="http://www.w3.org/1999/xlink">
<g id="graph0" class="graph" transform="scale(1 1) rotate(0) translate(4 63.52)">
<title>example</title>
<polygon fill="white" stroke="none" points="-4,4 -4,-63.52 479.63,-63.52 479.63,4 -4,4"/>
<!-- Start -->
<g id="node1" class="node">
<title>Start</title>
<polygon fill="#f8f8f8" stroke="black" points="54,-47.76 0,-47.76 0,-11.76 54,-11.76 54,-47.76"/>
<text xml:space="preserve" text-anchor="middle" x="27" y="-24.71" font-family="Times,serif" font-size="14.00">Start</text>
</g>
<!-- Process -->
<g id="node2" class="node">
<title>Process</title>
<polygon fill="#f8f8f8" stroke="black" points="177.5,-47.76 91,-47.76 91,-11.76 177.5,-11.76 177.5,-47.76"/>
<text xml:space="preserve" text-anchor="middle" x="134.25" y="-24.71" font-family="Times,serif" font-size="14.00">Process Data</text>
</g>
<!-- Start&#45;&gt;Process -->
<g id="edge1" class="edge">
<title>Start&#45;&gt;Process</title>
<path fill="none" stroke="black" d="M54.29,-29.76C61.91,-29.76 70.52,-29.76 79.19,-29.76"/>
<polygon fill="black" stroke="black" points="79.02,-33.26 89.01,-29.76 79.01,-26.26 79.02,-33.26"/>
</g>
<!-- Decision -->
<g id="node3" class="node">
<title>Decision</title>
<polygon fill="#fff0d9" stroke="black" points="294.56,-47.76 227,-29.76 294.56,-11.76 362.11,-29.76 294.56,-47.76"/>
<text xml:space="preserve" text-anchor="middle" x="294.56" y="-24.71" font-family="Times,serif" font-size="14.00">Decision?</text>
</g>
<!-- Process&#45;&gt;Decision -->
<g id="edge2" class="edge">
<title>Process&#45;&gt;Decision</title>
<path fill="none" stroke="black" d="M177.71,-31.35C183.68,-31.52 189.74,-31.67 195.5,-31.76 203.85,-31.9 212.59,-31.91 221.28,-31.84"/>
<polygon fill="black" stroke="black" points="221.15,-35.34 231.11,-31.72 221.06,-28.34 221.15,-35.34"/>
</g>
<!-- Decision&#45;&gt;Process -->
<g id="edge4" class="edge">
<title>Decision&#45;&gt;Process</title>
<path fill="none" stroke="red" d="M264.9,-19.2C245.4,-13.28 218.97,-7.74 195.5,-11.26 193.31,-11.59 191.09,-11.98 188.85,-12.43"/>
<polygon fill="red" stroke="red" points="188.1,-9.01 179.15,-14.68 189.68,-15.83 188.1,-9.01"/>
<text xml:space="preserve" text-anchor="middle" x="202.25" y="-14.46" font-family="Times,serif" font-size="14.00">no</text>
</g>
<!-- End -->
<g id="node4" class="node">
<title>End</title>
<ellipse fill="#e0ffe0" stroke="black" cx="445.87" cy="-29.76" rx="25.76" ry="25.76"/>
<ellipse fill="none" stroke="black" cx="445.87" cy="-29.76" rx="29.76" ry="29.76"/>
<text xml:space="preserve" text-anchor="middle" x="445.87" y="-24.71" font-family="Times,serif" font-size="14.00">End</text>
</g>
<!-- Decision&#45;&gt;End -->
<g id="edge3" class="edge">
<title>Decision&#45;&gt;End</title>
<path fill="none" stroke="green" d="M363.66,-29.76C377.53,-29.76 391.71,-29.76 404.25,-29.76"/>
<polygon fill="green" stroke="green" points="404.2,-33.26 414.2,-29.76 404.2,-26.26 404.2,-33.26"/>
<text xml:space="preserve" text-anchor="middle" x="389.11" y="-32.96" font-family="Times,serif" font-size="14.00">yes</text>
</g>
</g>
</svg>
